<svg width="32" height="32" viewBox="0 0 32 32" fill="none" xmlns="http://www.w3.org/2000/svg">
<rect width="32" height="32" fill="#0D0D0D"/>
<path d="M23.4807 11L16 14.206L8.5193 11L16 7.79398L23.4807 11Z" fill="white" stroke="white"/>
<mask id="path-3-inside-1_2_30" fill="white">
<path d="M7.25 16L16 19.75L24.75 16"/>
</mask>
<path d="M16 19.75L15.6061 20.6691L16 20.838L16.3939 20.6691L16 19.75ZM6.85608 16.9191L15.6061 20.6691L16.3939 18.8309L7.64392 15.0809L6.85608 16.9191ZM16.3939 20.6691L25.1439 16.9191L24.3561 15.0809L15.6061 18.8309L16.3939 20.6691Z" fill="white" mask="url(#path-3-inside-1_2_30)"/>
<mask id="path-5-inside-2_2_30" fill="white">
<path d="M7.25 21L16 24.75L24.75 21"/>
</mask>
<path d="M16 24.75L15.6061 25.6691L16 25.838L16.3939 25.6691L16 24.75ZM6.85608 21.9191L15.6061 25.6691L16.3939 23.8309L7.64392 20.0809L6.85608 21.9191ZM16.3939 25.6691L25.1439 21.9191L24.3561 20.0809L15.6061 23.8309L16.3939 25.6691Z" fill="white" mask="url(#path-5-inside-2_2_30)"/>
</svg>